<mxfile host="Electron" agent="Mozilla/5.0 (Windows NT 10.0; Win64; x64) AppleWebKit/537.36 (KHTML, like Gecko) draw.io/24.7.8 Chrome/128.0.6613.36 Electron/32.0.1 Safari/537.36" version="24.7.8">
  <diagram name="第 1 页" id="3RBmiAll6ozTTwwP_ub6">
    <mxGraphModel dx="1050" dy="629" grid="1" gridSize="10" guides="1" tooltips="1" connect="1" arrows="1" fold="1" page="1" pageScale="1" pageWidth="827" pageHeight="1169" math="0" shadow="0">
      <root>
        <mxCell id="0" />
        <mxCell id="1" parent="0" />
        <mxCell id="423FgJkCA2_73zhXxVrI-1" value="Context" style="swimlane;fontStyle=1;align=center;verticalAlign=top;childLayout=stackLayout;horizontal=1;startSize=26;horizontalStack=0;resizeParent=1;resizeParentMax=0;resizeLast=0;collapsible=1;marginBottom=0;whiteSpace=wrap;html=1;" vertex="1" parent="1">
          <mxGeometry x="170" y="140" width="160" height="52" as="geometry" />
        </mxCell>
        <mxCell id="423FgJkCA2_73zhXxVrI-2" value="+ algorithm()" style="text;strokeColor=none;fillColor=none;align=left;verticalAlign=top;spacingLeft=4;spacingRight=4;overflow=hidden;rotatable=0;points=[[0,0.5],[1,0.5]];portConstraint=eastwest;whiteSpace=wrap;html=1;" vertex="1" parent="423FgJkCA2_73zhXxVrI-1">
          <mxGeometry y="26" width="160" height="26" as="geometry" />
        </mxCell>
        <mxCell id="423FgJkCA2_73zhXxVrI-5" value="Strategy" style="swimlane;fontStyle=1;align=center;verticalAlign=top;childLayout=stackLayout;horizontal=1;startSize=26;horizontalStack=0;resizeParent=1;resizeParentMax=0;resizeLast=0;collapsible=1;marginBottom=0;whiteSpace=wrap;html=1;" vertex="1" parent="1">
          <mxGeometry x="500" y="140" width="160" height="52" as="geometry" />
        </mxCell>
        <mxCell id="423FgJkCA2_73zhXxVrI-8" value="+ algorithm()" style="text;strokeColor=none;fillColor=none;align=left;verticalAlign=top;spacingLeft=4;spacingRight=4;overflow=hidden;rotatable=0;points=[[0,0.5],[1,0.5]];portConstraint=eastwest;whiteSpace=wrap;html=1;" vertex="1" parent="423FgJkCA2_73zhXxVrI-5">
          <mxGeometry y="26" width="160" height="26" as="geometry" />
        </mxCell>
        <mxCell id="423FgJkCA2_73zhXxVrI-9" value="ConcreteStrategy" style="swimlane;fontStyle=1;align=center;verticalAlign=top;childLayout=stackLayout;horizontal=1;startSize=26;horizontalStack=0;resizeParent=1;resizeParentMax=0;resizeLast=0;collapsible=1;marginBottom=0;whiteSpace=wrap;html=1;" vertex="1" parent="1">
          <mxGeometry x="380" y="280" width="160" height="52" as="geometry" />
        </mxCell>
        <mxCell id="423FgJkCA2_73zhXxVrI-10" value="+ algorithm()" style="text;strokeColor=none;fillColor=none;align=left;verticalAlign=top;spacingLeft=4;spacingRight=4;overflow=hidden;rotatable=0;points=[[0,0.5],[1,0.5]];portConstraint=eastwest;whiteSpace=wrap;html=1;" vertex="1" parent="423FgJkCA2_73zhXxVrI-9">
          <mxGeometry y="26" width="160" height="26" as="geometry" />
        </mxCell>
        <mxCell id="423FgJkCA2_73zhXxVrI-11" value="ConcreteStrategy" style="swimlane;fontStyle=1;align=center;verticalAlign=top;childLayout=stackLayout;horizontal=1;startSize=26;horizontalStack=0;resizeParent=1;resizeParentMax=0;resizeLast=0;collapsible=1;marginBottom=0;whiteSpace=wrap;html=1;" vertex="1" parent="1">
          <mxGeometry x="620" y="280" width="160" height="52" as="geometry" />
        </mxCell>
        <mxCell id="423FgJkCA2_73zhXxVrI-12" value="+ algorithm()" style="text;strokeColor=none;fillColor=none;align=left;verticalAlign=top;spacingLeft=4;spacingRight=4;overflow=hidden;rotatable=0;points=[[0,0.5],[1,0.5]];portConstraint=eastwest;whiteSpace=wrap;html=1;" vertex="1" parent="423FgJkCA2_73zhXxVrI-11">
          <mxGeometry y="26" width="160" height="26" as="geometry" />
        </mxCell>
        <mxCell id="423FgJkCA2_73zhXxVrI-14" value="" style="endArrow=block;endFill=0;endSize=12;html=1;rounded=0;" edge="1" parent="1" source="423FgJkCA2_73zhXxVrI-9" target="423FgJkCA2_73zhXxVrI-5">
          <mxGeometry width="160" relative="1" as="geometry">
            <mxPoint x="240" y="488" as="sourcePoint" />
            <mxPoint x="240" y="340" as="targetPoint" />
          </mxGeometry>
        </mxCell>
        <mxCell id="423FgJkCA2_73zhXxVrI-15" value="" style="endArrow=block;endFill=0;endSize=12;html=1;rounded=0;" edge="1" parent="1" source="423FgJkCA2_73zhXxVrI-11" target="423FgJkCA2_73zhXxVrI-5">
          <mxGeometry width="160" relative="1" as="geometry">
            <mxPoint x="280" y="438" as="sourcePoint" />
            <mxPoint x="280" y="290" as="targetPoint" />
          </mxGeometry>
        </mxCell>
        <mxCell id="423FgJkCA2_73zhXxVrI-16" value="1" style="endArrow=open;html=1;endSize=12;startArrow=diamondThin;startSize=14;startFill=0;edgeStyle=orthogonalEdgeStyle;align=left;verticalAlign=bottom;rounded=0;" edge="1" parent="1" source="423FgJkCA2_73zhXxVrI-1" target="423FgJkCA2_73zhXxVrI-5">
          <mxGeometry x="-1" y="3" relative="1" as="geometry">
            <mxPoint x="100" y="400" as="sourcePoint" />
            <mxPoint x="260" y="400" as="targetPoint" />
          </mxGeometry>
        </mxCell>
      </root>
    </mxGraphModel>
  </diagram>
</mxfile>
